<?xml version="1.0" encoding="iso-8859-1"?>
<!-- Generator: Adobe Illustrator 19.0.0, SVG Export Plug-In . SVG Version: 6.00 Build 0)  -->
<svg version="1.1" id="Layer_1" xmlns="http://www.w3.org/2000/svg" xmlns:xlink="http://www.w3.org/1999/xlink" x="0px" y="0px"
	 viewBox="0 0 297 297" style="enable-background:new 0 0 297 297;" xml:space="preserve">
<g>
	<g>
		<g>
			<path d="M115.167,101.47H24.012C10.751,101.469,0,112.22,0,125.482v43.477c0,14.674,11.896,26.57,26.57,26.57h39.67
				c21.977,0,41.223-14.737,46.954-35.953l10.297-45.336c0.633-3.567-0.276-7.232-2.431-9.804
				C120.132,103.328,118.132,101.47,115.167,101.47z M24.542,138.106c-1.945,0-3.888-0.742-5.373-2.225
				c-2.967-2.968-2.967-7.779,0-10.747l5.428-5.428c2.968-2.966,7.779-2.966,10.747,0c2.967,2.968,2.967,7.779,0,10.747
				l-5.428,5.428C28.432,137.364,26.487,138.106,24.542,138.106z M64.111,130.453l-21.71,21.71
				c-1.484,1.483-3.429,2.225-5.374,2.225c-1.945,0-3.889-0.742-5.374-2.225c-2.967-2.968-2.967-7.779,0-10.747l21.71-21.71
				c2.968-2.966,7.779-2.966,10.747,0C67.078,122.674,67.078,127.485,64.111,130.453z"/>
			<path d="M160.885,106.524h-26.517c0.575,3.345,0.587,6.828-0.021,10.307l-2.22,12.693h31l-2.22-12.693
				C160.299,113.352,160.311,109.868,160.885,106.524z"/>
			<path d="M272.988,101.47h-94.649c-2.965,0-4.965,1.858-5.893,2.966c-2.155,2.572-3.064,6.236-2.43,9.804l10.296,45.336
				c5.731,21.216,24.977,35.954,46.954,35.954h43.164c14.674-0.001,26.57-11.897,26.57-26.571v-43.477
				C297,112.22,286.249,101.47,272.988,101.47z M192.422,135.881c-2.967-2.968-2.967-7.779,0-10.747l5.428-5.428
				c2.968-2.966,7.779-2.966,10.747,0c2.967,2.968,2.967,7.779,0,10.747l-5.428,5.428c-1.484,1.483-3.429,2.225-5.374,2.225
				C195.851,138.106,193.906,137.364,192.422,135.881z M237.363,130.453l-21.71,21.71c-1.484,1.483-3.429,2.225-5.374,2.225
				c-1.945,0-3.889-0.742-5.374-2.225c-2.967-2.968-2.967-7.779,0-10.747l21.71-21.71c2.968-2.966,7.779-2.966,10.747,0
				C240.33,122.674,240.33,127.485,237.363,130.453z"/>
		</g>
	</g>
</g>
<g>
</g>
<g>
</g>
<g>
</g>
<g>
</g>
<g>
</g>
<g>
</g>
<g>
</g>
<g>
</g>
<g>
</g>
<g>
</g>
<g>
</g>
<g>
</g>
<g>
</g>
<g>
</g>
<g>
</g>
</svg>
