<svg width="36" height="36" viewBox="0 0 36 36" fill="none" xmlns="http://www.w3.org/2000/svg">
<path fill-rule="evenodd" clip-rule="evenodd" d="M3 8.4C2.6688 8.4 2.4 8.6688 2.4 9V29.4C2.4 29.7312 2.6688 30 3 30C3.3312 30 3.6 29.7312 3.6 29.4V9C3.6 8.6688 3.3312 8.4 3 8.4ZM13.2 13.2C13.2 13.8618 13.7382 14.4 14.4 14.4C15.0618 14.4 15.6 13.8618 15.6 13.2C15.6 12.5382 15.0618 12 14.4 12C13.7382 12 13.2 12.5382 13.2 13.2ZM10.8 18.6C10.8 18.9312 11.0688 19.2 11.4 19.2H15C15.159 19.2 15.312 19.137 15.4242 19.0242L19.2 15.2484L20.5758 16.6242C20.8104 16.8588 21.1896 16.8588 21.4242 16.6242L24 14.0484L26.5758 16.6242C26.8104 16.8588 27.1896 16.8588 27.4242 16.6242C27.6588 16.3896 27.6588 16.0104 27.4242 15.7758L24.4242 12.7758C24.1896 12.5412 23.8104 12.5412 23.5758 12.7758L21 15.3516L19.6242 13.9758C19.3896 13.7412 19.0104 13.7412 18.7758 13.9758L14.7516 18H12V10.8H28.8V18H18.6C18.2688 18 18 18.2688 18 18.6C18 18.9312 18.2688 19.2 18.6 19.2H29.4C29.7312 19.2 30 18.9312 30 18.6V10.2C30 9.8688 29.7312 9.6 29.4 9.6H11.4C11.0688 9.6 10.8 9.8688 10.8 10.2V18.6ZM28.2 28.8H22.2C21.8688 28.8 21.6 29.0688 21.6 29.4C21.6 29.7312 21.8688 30 22.2 30H28.2C28.5312 30 28.8 29.7312 28.8 29.4C28.8 29.0688 28.5312 28.8 28.2 28.8ZM11.4 30H17.4C17.7312 30 18 29.7312 18 29.4C18 29.0688 17.7312 28.8 17.4 28.8H11.4C11.0688 28.8 10.8 29.0688 10.8 29.4C10.8 29.7312 11.0688 30 11.4 30ZM28.2 25.2H22.2C21.8688 25.2 21.6 25.4688 21.6 25.8C21.6 26.1312 21.8688 26.4 22.2 26.4H28.2C28.5312 26.4 28.8 26.1312 28.8 25.8C28.8 25.4688 28.5312 25.2 28.2 25.2ZM11.4 26.4H18.6C18.9312 26.4 19.2 26.1312 19.2 25.8C19.2 25.4688 18.9312 25.2 18.6 25.2H11.4C11.0688 25.2 10.8 25.4688 10.8 25.8C10.8 26.1312 11.0688 26.4 11.4 26.4ZM30 22.2C30 21.8688 29.7312 21.6 29.4 21.6H22.2C21.8688 21.6 21.6 21.8688 21.6 22.2C21.6 22.5312 21.8688 22.8 22.2 22.8H29.4C29.7312 22.8 30 22.5312 30 22.2ZM29.4 7.2C29.7312 7.2 30 6.9312 30 6.6C30 6.2688 29.7312 6 29.4 6H27C26.6688 6 26.4 6.2688 26.4 6.6C26.4 6.9312 26.6688 7.2 27 7.2H29.4ZM11.4 7.2H21C21.3312 7.2 21.6 6.9312 21.6 6.6C21.6 6.2688 21.3312 6 21 6H11.4C11.0688 6 10.8 6.2688 10.8 6.6C10.8 6.9312 11.0688 7.2 11.4 7.2ZM11.4 22.8H17.4C17.7312 22.8 18 22.5312 18 22.2C18 21.8688 17.7312 21.6 17.4 21.6H11.4C11.0688 21.6 10.8 21.8688 10.8 22.2C10.8 22.5312 11.0688 22.8 11.4 22.8ZM36 3V30.6C36 33.9306 33.9306 36 30.6 36H5.4C2.0694 36 0 33.9306 0 30.6V7.8C0 6.1458 1.3458 4.8 3 4.8C3.3312 4.8 3.6 5.0688 3.6 5.4C3.6 5.7312 3.3312 6 3 6C2.0076 6 1.2 6.8076 1.2 7.8V30.6C1.2 33.2694 2.7306 34.8 5.4 34.8H30.6C33.2694 34.8 34.8 33.2694 34.8 30.6V3C34.8 2.0076 33.9924 1.2 33 1.2H7.8C6.8412 1.2 6 2.0412 6 3V31.8C6 32.1312 5.7312 32.4 5.4 32.4C5.0688 32.4 4.8 32.1312 4.8 31.8V3C4.8 1.374 6.174 0 7.8 0H33C34.6542 0 36 1.3458 36 3Z" fill="black" fill-opacity="0.54"/>
</svg>
