<svg width="38" height="38" viewBox="0 0 38 38" fill="none" xmlns="http://www.w3.org/2000/svg">
<g clip-path="url(#clip0)">
<path d="M17.9238 23.5273H20.0762C20.3838 23.5273 20.6328 23.2783 20.6328 22.9707V18.5547C20.6328 17.6542 19.9005 16.9219 19 16.9219C18.0995 16.9219 17.3672 17.6542 17.3672 18.5547V22.9707C17.3672 23.2783 17.6162 23.5273 17.9238 23.5273ZM18.4805 18.5547C18.4805 18.2682 18.7136 18.0352 19 18.0352C19.2864 18.0352 19.5195 18.2682 19.5195 18.5547V22.4141H18.4805V18.5547Z" fill="black" fill-opacity="0.54"/>
<path d="M17.998 29.4648H20.1504C20.458 29.4648 20.707 29.2158 20.707 28.9082V25.8652C20.707 25.5576 20.458 25.3086 20.1504 25.3086H17.998C17.6904 25.3086 17.4414 25.5576 17.4414 25.8652V28.9082C17.4414 29.2158 17.6904 29.4648 17.998 29.4648ZM18.5547 26.4219H19.5938V28.3516H18.5547V26.4219Z" fill="black" fill-opacity="0.54"/>
<path d="M20.2246 31.2461H18.0723C17.7647 31.2461 17.5156 31.4951 17.5156 31.8027V34.8457C17.5156 35.1533 17.7647 35.4023 18.0723 35.4023H20.2246C20.5322 35.4023 20.7812 35.1533 20.7812 34.8457V31.8027C20.7812 31.4951 20.5322 31.2461 20.2246 31.2461ZM19.668 34.2891H18.6289V32.3594H19.668V34.2891Z" fill="black" fill-opacity="0.54"/>
<path d="M37.9997 16.9546C37.9997 16.9541 37.9997 16.9532 37.9997 16.9523C37.998 16.8161 37.9475 16.692 37.8652 16.5963C36.7334 14.8466 34.8228 13.8047 32.7339 13.8047H24.961L25.8304 12.2632C26.0337 11.9031 25.7623 11.4332 25.3457 11.4332H24.5661L21.7884 5.33563C21.491 4.68216 20.4777 5.14371 20.7755 5.79718L23.3409 11.4297H21.3008V9.92676C21.3008 8.71954 20.3185 7.7373 19.1113 7.7373C17.9041 7.7373 16.9219 8.71954 16.9219 9.92676V11.4297H14.6591L19 1.89954L19.5584 3.12531C19.8561 3.77878 20.8691 3.31723 20.5714 2.66376L19.5065 0.325867C19.416 0.127563 19.218 0 19 0C18.782 0 18.584 0.127563 18.4935 0.325867L13.4339 11.4332H12.6543C12.2406 11.4332 11.9649 11.9005 12.1696 12.2635L13.039 13.8047H9.42578C8.70766 13.8047 8.70766 14.918 9.42578 14.918H13.4521V16.4122H1.69833C2.62694 15.4624 3.90025 14.918 5.26605 14.918H5.78906C6.50719 14.918 6.50719 13.8047 5.78906 13.8047H5.26605C3.1772 13.8047 1.26665 14.8466 0.134811 16.5963C0.052475 16.6923 0.00202942 16.8161 0.000289917 16.9523V16.9546C0.000289917 16.9561 0 16.9575 0 16.959V37.4434C0 37.751 0.249039 38 0.556641 38H37.4434C37.751 38 38 37.751 38 37.4434V16.959C38 16.9575 37.9997 16.9561 37.9997 16.9546ZM18.0352 9.92676C18.0352 9.3333 18.5179 8.85059 19.1113 8.85059C19.7048 8.85059 20.1875 9.3333 20.1875 9.92676V11.3555H18.0352V9.92676ZM36.3017 16.4122H24.5479V14.918H32.7339C34.0997 14.918 35.3731 15.4624 36.3017 16.4122ZM14.3593 13.8789L13.6075 12.5464H24.3925L23.6407 13.8789H14.3593ZM1.11328 17.5255H13.4521V36.8867H1.11328V17.5255ZM24.5479 36.8867V33.918C24.5479 33.1998 23.4346 33.1998 23.4346 33.918V36.8867H14.5654V14.9922H23.4346V30.4297C23.4346 31.1478 24.5479 31.1478 24.5479 30.4297V17.5255H36.8867V36.8867H24.5479Z" fill="black" fill-opacity="0.54"/>
<path d="M5.82617 19.3711H3.67383C3.36623 19.3711 3.11719 19.6201 3.11719 19.9277V22.9707C3.11719 23.2783 3.36623 23.5273 3.67383 23.5273H5.82617C6.13377 23.5273 6.38281 23.2783 6.38281 22.9707V19.9277C6.38281 19.6201 6.13377 19.3711 5.82617 19.3711ZM5.26953 22.4141H4.23047V20.4844H5.26953V22.4141Z" fill="black" fill-opacity="0.54"/>
<path d="M10.6504 19.2969H8.49805C8.19044 19.2969 7.94141 19.5459 7.94141 19.8535V22.8965C7.94141 23.2041 8.19044 23.4531 8.49805 23.4531H10.6504C10.958 23.4531 11.207 23.2041 11.207 22.8965V19.8535C11.207 19.5459 10.958 19.2969 10.6504 19.2969ZM10.0938 22.3398H9.05469V20.4102H10.0938V22.3398Z" fill="black" fill-opacity="0.54"/>
<path d="M5.82617 25.3086H3.67383C3.36623 25.3086 3.11719 25.5576 3.11719 25.8652V28.9082C3.11719 29.2158 3.36623 29.4648 3.67383 29.4648H5.82617C6.13377 29.4648 6.38281 29.2158 6.38281 28.9082V25.8652C6.38281 25.5576 6.13377 25.3086 5.82617 25.3086ZM5.26953 28.3516H4.23047V26.4219H5.26953V28.3516Z" fill="black" fill-opacity="0.54"/>
<path d="M10.6504 25.2344H8.49805C8.19044 25.2344 7.94141 25.4834 7.94141 25.791V28.834C7.94141 29.1416 8.19044 29.3906 8.49805 29.3906H10.6504C10.958 29.3906 11.207 29.1416 11.207 28.834V25.791C11.207 25.4834 10.958 25.2344 10.6504 25.2344ZM10.0938 28.2773H9.05469V26.3477H10.0938V28.2773Z" fill="black" fill-opacity="0.54"/>
<path d="M5.82617 31.2461H3.67383C3.36623 31.2461 3.11719 31.4951 3.11719 31.8027V34.8457C3.11719 35.1533 3.36623 35.4023 3.67383 35.4023H5.82617C6.13377 35.4023 6.38281 35.1533 6.38281 34.8457V31.8027C6.38281 31.4951 6.13377 31.2461 5.82617 31.2461ZM5.26953 34.2891H4.23047V32.3594H5.26953V34.2891Z" fill="black" fill-opacity="0.54"/>
<path d="M10.6504 31.1719H8.49805C8.19044 31.1719 7.94141 31.4209 7.94141 31.7285V34.7715C7.94141 35.0791 8.19044 35.3281 8.49805 35.3281H10.6504C10.958 35.3281 11.207 35.0791 11.207 34.7715V31.7285C11.207 31.4209 10.958 31.1719 10.6504 31.1719ZM10.0938 34.2148H9.05469V32.2852H10.0938V34.2148Z" fill="black" fill-opacity="0.54"/>
<path d="M29.2793 19.3711H27.127C26.8194 19.3711 26.5703 19.6201 26.5703 19.9277V22.9707C26.5703 23.2783 26.8194 23.5273 27.127 23.5273H29.2793C29.5869 23.5273 29.8359 23.2783 29.8359 22.9707V19.9277C29.8359 19.6201 29.5869 19.3711 29.2793 19.3711ZM28.7227 22.4141H27.6836V20.4844H28.7227V22.4141Z" fill="black" fill-opacity="0.54"/>
<path d="M34.1035 19.2969H31.9512C31.6436 19.2969 31.3945 19.5459 31.3945 19.8535V22.8965C31.3945 23.2041 31.6436 23.4531 31.9512 23.4531H34.1035C34.4111 23.4531 34.6602 23.2041 34.6602 22.8965V19.8535C34.6602 19.5459 34.4111 19.2969 34.1035 19.2969ZM33.5469 22.3398H32.5078V20.4102H33.5469V22.3398Z" fill="black" fill-opacity="0.54"/>
<path d="M29.2793 25.3086H27.127C26.8194 25.3086 26.5703 25.5576 26.5703 25.8652V28.9082C26.5703 29.2158 26.8194 29.4648 27.127 29.4648H29.2793C29.5869 29.4648 29.8359 29.2158 29.8359 28.9082V25.8652C29.8359 25.5576 29.5869 25.3086 29.2793 25.3086ZM28.7227 28.3516H27.6836V26.4219H28.7227V28.3516Z" fill="black" fill-opacity="0.54"/>
<path d="M34.1035 25.2344H31.9512C31.6436 25.2344 31.3945 25.4834 31.3945 25.791V28.834C31.3945 29.1416 31.6436 29.3906 31.9512 29.3906H34.1035C34.4111 29.3906 34.6602 29.1416 34.6602 28.834V25.791C34.6602 25.4834 34.4111 25.2344 34.1035 25.2344ZM33.5469 28.2773H32.5078V26.3477H33.5469V28.2773Z" fill="black" fill-opacity="0.54"/>
<path d="M29.2793 31.2461H27.127C26.8194 31.2461 26.5703 31.4951 26.5703 31.8027V34.8457C26.5703 35.1533 26.8194 35.4023 27.127 35.4023H29.2793C29.5869 35.4023 29.8359 35.1533 29.8359 34.8457V31.8027C29.8359 31.4951 29.5869 31.2461 29.2793 31.2461ZM28.7227 34.2891H27.6836V32.3594H28.7227V34.2891Z" fill="black" fill-opacity="0.54"/>
<path d="M34.1035 31.1719H31.9512C31.6436 31.1719 31.3945 31.4209 31.3945 31.7285V34.7715C31.3945 35.0791 31.6436 35.3281 31.9512 35.3281H34.1035C34.4111 35.3281 34.6602 35.0791 34.6602 34.7715V31.7285C34.6602 31.4209 34.4111 31.1719 34.1035 31.1719ZM33.5469 34.2148H32.5078V32.2852H33.5469V34.2148Z" fill="black" fill-opacity="0.54"/>
</g>
<defs>
<clipPath id="clip0">
<rect width="38" height="38" fill="white"/>
</clipPath>
</defs>
</svg>
